<?xml version="1.0" encoding="iso-8859-1"?>
<!-- Generator: Adobe Illustrator 19.0.0, SVG Export Plug-In . SVG Version: 6.00 Build 0)  -->
<svg version="1.1" id="Capa_1" xmlns="http://www.w3.org/2000/svg" xmlns:xlink="http://www.w3.org/1999/xlink" x="0px" y="0px"
	 viewBox="0 0 468.293 468.293" style="enable-background:new 0 0 468.293 468.293;" xml:space="preserve">
<path style="fill:#64798A;" d="M243.079,130.056c-0.887-0.234-1.915-0.981-1.915-2.102v-26.139h-14.014v26.139
	c0,7.147,4.765,13.407,11.912,15.556c8.829,2.616,13.921,11.492,11.819,20.601c-1.448,6.4-6.775,11.538-13.174,12.753
	c-5.326,1.028-10.464-0.234-14.482-3.55c-4.017-3.27-6.306-8.128-6.306-13.314c0-3.877-3.131-7.007-7.007-7.007
	c-3.878,0-7.007,3.13-7.007,7.007c0,9.39,4.157,18.172,11.398,24.105c5.606,4.671,12.66,7.148,19.901,7.148
	c2.055,0,4.11-0.234,6.167-0.607c11.772-2.289,21.488-11.725,24.198-23.404C268.259,151.125,258.822,134.774,243.079,130.056z"/>
<path style="fill:#D5D6DB;" d="M377.644,255.816L238.06,160.891c-2.383-1.635-5.465-1.635-7.848,0L90.627,255.816
	c-2.569,1.728-3.691,4.905-2.756,7.848c0.888,2.943,3.597,4.952,6.68,4.952H373.72c3.083,0,5.793-2.009,6.68-4.952
	C381.334,260.721,380.213,257.544,377.644,255.816z M117.301,254.601l116.834-79.462l116.834,79.462H117.301z"/>
<polygon style="fill:#FCD462;" points="287.064,48.069 256.512,108.612 211.853,108.612 181.209,48.069 202.043,0 266.276,0 "/>
<rect x="205.693" y="104.841" style="fill:#D5D6DB;" width="56.869" height="14.398"/>
<path style="fill:#64798A;" d="M264.568,167.195c0,0.047,0,0.047,0,0.047c-2.71,11.679-12.426,21.115-24.198,23.404
	c-2.056,0.374-4.111,0.607-6.167,0.607c-0.514,0-1.028,0-1.542-0.047v-14.061c1.635,0.14,3.317,0.047,5.046-0.28
	c5.326-1.028,9.857-4.765,12.1-9.67H264.568z"/>
<path style="fill:#E56353;" d="M432.311,269.988v177.75c0,11.352-9.203,20.555-20.555,20.555H56.489
	c-11.305,0-20.507-9.203-20.507-20.555v-177.75c0-11.305,9.203-20.508,20.507-20.508h355.266
	C423.108,249.48,432.311,258.683,432.311,269.988z"/>
<g>
	<path style="fill:#D15241;" d="M94.536,286.285v145.203c0,5.53-4.495,10.025-10.025,10.025c-2.783,0-5.28-1.142-7.135-2.925
		c-1.784-1.819-2.925-4.352-2.925-7.099V286.285c0-5.53,4.494-10.025,10.06-10.025c2.783,0,5.28,1.106,7.099,2.925
		S94.536,283.502,94.536,286.285z"/>
	<path style="fill:#D15241;" d="M154.397,286.285v145.203c0,5.53-4.495,10.025-10.025,10.025c-2.783,0-5.28-1.142-7.135-2.925
		c-1.784-1.819-2.925-4.352-2.925-7.099V286.285c0-5.53,4.494-10.025,10.06-10.025c2.783,0,5.28,1.106,7.099,2.925
		C153.291,281.005,154.397,283.502,154.397,286.285z"/>
	<path style="fill:#D15241;" d="M214.258,286.285v145.203c0,5.53-4.495,10.025-10.025,10.025c-2.783,0-5.28-1.142-7.135-2.925
		c-1.784-1.819-2.925-4.352-2.925-7.099V286.285c0-5.53,4.494-10.025,10.06-10.025c2.783,0,5.28,1.106,7.099,2.925
		C213.152,281.005,214.258,283.502,214.258,286.285z"/>
	<path style="fill:#D15241;" d="M274.119,286.285v145.203c0,5.53-4.495,10.025-10.025,10.025c-2.783,0-5.28-1.142-7.135-2.925
		c-1.784-1.819-2.925-4.352-2.925-7.099V286.285c0-5.53,4.494-10.025,10.06-10.025c2.783,0,5.28,1.106,7.099,2.925
		C273.013,281.005,274.119,283.502,274.119,286.285z"/>
	<path style="fill:#D15241;" d="M333.98,286.285v145.203c0,5.53-4.495,10.025-10.025,10.025c-2.783,0-5.28-1.142-7.135-2.925
		c-1.784-1.819-2.925-4.352-2.925-7.099V286.285c0-5.53,4.494-10.025,10.06-10.025c2.783,0,5.28,1.106,7.099,2.925
		C332.874,281.005,333.98,283.502,333.98,286.285z"/>
	<path style="fill:#D15241;" d="M393.841,286.285v145.203c0,5.53-4.495,10.025-10.025,10.025c-2.783,0-5.28-1.142-7.135-2.925
		c-1.784-1.819-2.925-4.352-2.925-7.099V286.285c0-5.53,4.494-10.025,10.06-10.025c2.783,0,5.28,1.106,7.099,2.925
		S393.841,283.502,393.841,286.285z"/>
</g>
<g>
</g>
<g>
</g>
<g>
</g>
<g>
</g>
<g>
</g>
<g>
</g>
<g>
</g>
<g>
</g>
<g>
</g>
<g>
</g>
<g>
</g>
<g>
</g>
<g>
</g>
<g>
</g>
<g>
</g>
</svg>
